<svg id="Capa_1" data-name="Capa 1" xmlns="http://www.w3.org/2000/svg" viewBox="0 0 239.22 70.53"><defs><style>.cls-1{fill:#1e1e1e;}</style></defs><title>logo</title><path class="cls-1" d="M16.35,66.66a12.43,12.43,0,0,1-8.66-3.23,18.7,18.7,0,0,1-3.14-3.82,23.81,23.81,0,0,1-2.16-4.46,28,28,0,0,1-1.26-4.78,27.47,27.47,0,0,1-.42-4.79c0-.64.36-1,1.09-1a2.69,2.69,0,0,1,2.14,1,4.06,4.06,0,0,1,1,2.17,41,41,0,0,0,.58,4.91A18.27,18.27,0,0,0,7,57.45,10.16,10.16,0,0,0,9.72,61a6.81,6.81,0,0,0,4.43,1.39q5.51,0,8.73-5.17t5.5-15.32c.73-3.37,1.47-7.1,2.23-11.22s1.5-8.65,2.23-13.61L30,17.59l-1.59.29L27.5,18l-.87.16-1.42.26c-.6.11-1.47.25-2.59.42a2.89,2.89,0,0,1-2.23-1,3,3,0,0,1-.93-2v-.32a.57.57,0,0,1,.25-.46,8.39,8.39,0,0,1,2.66-.77L46.16,10a2.83,2.83,0,0,1,2.16,1,3,3,0,0,1,.94,2,1.39,1.39,0,0,1-.13.65,1.29,1.29,0,0,1-.55.39,9.69,9.69,0,0,1-1.65.42l-3.49.64q-2.27.42-5.95,1.07-1.1,7.05-2.13,13.54t-2.2,12.09a102.23,102.23,0,0,1-2.62,10.19,36.12,36.12,0,0,1-3.42,7.82,15.74,15.74,0,0,1-4.63,5A10.7,10.7,0,0,1,16.35,66.66Z"/><path class="cls-1" d="M55.53,56.64q-2,0-3.29-3a18,18,0,0,1-1.17-6.4V45.81a7.42,7.42,0,0,1,.13-1.39q-1.87,3.11-3.13,5a29.19,29.19,0,0,1-2.2,3,6.52,6.52,0,0,1-1.68,1.45,3.4,3.4,0,0,1-1.59.39,5.65,5.65,0,0,1-3.94-1.94q-1.87-1.87-1.88-5.69a21.45,21.45,0,0,1,.29-3.1c.2-1.25.45-2.57.75-3.95s.65-2.75,1.06-4.13.82-2.63,1.23-3.75A16.64,16.64,0,0,1,41.34,29c.41-.69.77-1,1.07-1a3,3,0,0,1,2.16,1.06,3.08,3.08,0,0,1,1,2c-.35.86-.68,1.7-1,2.52s-.64,1.71-1,2.68-.64,2-1,3.17-.63,2.45-.93,3.91A25,25,0,0,0,41,48.75c0,.78,0,1.16.12,1.16.35,0,1-.59,1.82-1.77s1.84-2.69,2.94-4.5,2.25-3.75,3.46-5.82L52.72,32c1.06-1.81,2-3.3,2.75-4.49s1.29-1.78,1.55-1.78a1.9,1.9,0,0,1,1,.33,4.54,4.54,0,0,1,1,.8,4,4,0,0,1,.72,1.07A2.76,2.76,0,0,1,60,29a5.61,5.61,0,0,1-.19,1,20.84,20.84,0,0,1-.71,2.13Q55.21,44,55.21,49.27a10.44,10.44,0,0,0,.23,2.45,13,13,0,0,0,.48,1.65,9.21,9.21,0,0,0,.49,1.13,2.19,2.19,0,0,1,.22,1A1,1,0,0,1,55.53,56.64Z"/><path class="cls-1" d="M76.22,56.06a2.4,2.4,0,0,1-2.07-1.14A8.75,8.75,0,0,1,73,52.21a17.86,17.86,0,0,1-.55-3.36c-.09-1.19-.13-2.21-.13-3.07v-.65c-.52.78-1.14,1.65-1.88,2.62A32.71,32.71,0,0,1,68,50.53a14.73,14.73,0,0,1-2.65,2.23,5,5,0,0,1-2.75.9,4.6,4.6,0,0,1-1.9-.42,5.86,5.86,0,0,1-3.4-5.4,12.28,12.28,0,0,1,1.23-4.94A18.25,18.25,0,0,1,62,37.79a20.42,20.42,0,0,1,5.27-4A14,14,0,0,1,74,32.2a1,1,0,0,1,.39.06L75,31.1a1,1,0,0,1,1-.45,3.07,3.07,0,0,1,2,.93,2.8,2.8,0,0,1,1,2.11c-.08.25-.27.85-.55,1.77s-.57,2-.87,3.33-.57,2.73-.81,4.3a31.14,31.14,0,0,0-.35,4.69,24.86,24.86,0,0,0,1,6.72.75.75,0,0,0,0,.23.75.75,0,0,1,0,.23C77.45,55.65,77,56,76.22,56.06ZM61.55,49.2A19.05,19.05,0,0,0,67,43.84q1.48-2,2.58-3.59c.73-1.06,1.36-2,1.88-2.88a17,17,0,0,0-3.82,2.3,18.11,18.11,0,0,0-3,3A18.41,18.41,0,0,0,62.55,46,10.22,10.22,0,0,0,61.55,49.2Z"/><path class="cls-1" d="M102.66,61.75a3.15,3.15,0,0,1-2-.94,10.47,10.47,0,0,1-2-2.59A16.71,16.71,0,0,1,97,54.34a17,17,0,0,1-.65-4.75,26.79,26.79,0,0,1,.81-6.53c.54-2.15,1.18-4.27,1.91-6.34A157.62,157.62,0,0,0,84,60a1.28,1.28,0,0,1-.77.61,3.11,3.11,0,0,1-.91.17,2.62,2.62,0,0,1-1.87-.84,3.63,3.63,0,0,1-1-1.81c-.17-.91-.3-1.83-.38-2.75s-.13-1.87-.13-2.82a47.42,47.42,0,0,1,.38-5.81,56.87,56.87,0,0,1,1.07-5.89q.67-2.84,1.52-5.43a45.42,45.42,0,0,1,1.71-4.52,17.35,17.35,0,0,1,1.72-3.08c.56-.75,1.07-1.13,1.55-1.13A2.43,2.43,0,0,1,88,27a4.71,4.71,0,0,1,1,.78,4.33,4.33,0,0,1,.77,1,2.23,2.23,0,0,1,.29,1l-.13.58q-2.26,5.18-4,10.08a54.81,54.81,0,0,0-2.62,10.74q3.44-6,8.67-13.52,7.36-10.47,10-10.47a3.57,3.57,0,0,1,2,1,4.36,4.36,0,0,1,1.23,3.5,12.1,12.1,0,0,1-.74,3.78c-.5,1.44-1,3-1.62,4.75s-1.11,3.55-1.58,5.46a24.29,24.29,0,0,0-.71,5.92,11.27,11.27,0,0,0,.8,4.14A25.57,25.57,0,0,0,103,59.22l.77,1.36a1.16,1.16,0,0,1-.29.84A1,1,0,0,1,102.66,61.75Z"/><path class="cls-1" d="M118.12,51.21a10.49,10.49,0,0,1-3.37-.52,11.53,11.53,0,0,1-2.84-1.39,10.48,10.48,0,0,1-2.23-2,11.51,11.51,0,0,1-1.52-2.36l-1,.25a2.92,2.92,0,0,1-2-1,3.05,3.05,0,0,1-1-2.23.93.93,0,0,1,.32-.81,6.07,6.07,0,0,1,1.43-.55l1.61-.58a18.9,18.9,0,0,1,6.08-10.67q4.92-4.65,9-4.65a5,5,0,0,1,2.16.48,6.06,6.06,0,0,1,1.78,1.33,6.59,6.59,0,0,1,1.23,1.87,5.15,5.15,0,0,1,.45,2.07,6.28,6.28,0,0,1-1.26,3.66,17,17,0,0,1-3.46,3.49,31.11,31.11,0,0,1-5.23,3.23q-3,1.52-6.6,2.88c.09,2.15,1.57,3.23,4.46,3.23a9,9,0,0,0,5-1.49,24.14,24.14,0,0,0,3.55-2.87c.86-.89,1.49-1.33,1.88-1.33a2.23,2.23,0,0,1,1,.29,5,5,0,0,1,1,.71,4.33,4.33,0,0,1,.78,1,2.46,2.46,0,0,1,.32,1.17c0,.26-.32.75-1,1.49a17.08,17.08,0,0,1-2.59,2.29,18,18,0,0,1-3.71,2.1A10.68,10.68,0,0,1,118.12,51.21ZM113.4,37.63a34.36,34.36,0,0,0,8.14-5C123.18,31.14,124,29.94,124,29V29a14.52,14.52,0,0,0-6.21,3.36A22.76,22.76,0,0,0,113.4,37.63Z"/><path class="cls-1" d="M133.24,69.83a2.8,2.8,0,0,1-2.16-1.07,3.14,3.14,0,0,1-.94-2c0-.47.31-.8.94-1a9.93,9.93,0,0,0,2.49-1.39,5.47,5.47,0,0,0,1.74-2.07,7.9,7.9,0,0,0,.71-3.68,12.93,12.93,0,0,0-.87-4.75c-.58-1.49-1.21-3-1.87-4.6S132,46,131.4,44.13a20.92,20.92,0,0,1-.87-6.31,24.72,24.72,0,0,1,.58-5.27,25.73,25.73,0,0,1,1.75-5.23,23.79,23.79,0,0,1,2.91-4.82,23.44,23.44,0,0,1,4.13-4.14,1.34,1.34,0,0,1,.84-.26,2.17,2.17,0,0,1,1,.26,3.83,3.83,0,0,1,1,.71,4.27,4.27,0,0,1,.75,1,2.4,2.4,0,0,1,.29,1.13,1,1,0,0,1-.26.84,23.24,23.24,0,0,0-6.27,7.37,21.18,21.18,0,0,0-2.52,10.47,17.92,17.92,0,0,0,.87,6,46.29,46.29,0,0,0,2,4.72,40.05,40.05,0,0,1,1.91,4.49,16.24,16.24,0,0,1,.81,5.4,9.77,9.77,0,0,1-2.33,6.79C136.3,69,134.75,69.83,133.24,69.83Z"/><path class="cls-1" d="M150.38,66a9.69,9.69,0,0,1-3.53-.62,8.85,8.85,0,0,1-2.71-1.61,7.34,7.34,0,0,1-1.75-2.23,5.45,5.45,0,0,1-.61-2.46,7,7,0,0,1,.77-3.1,15,15,0,0,1,1.81-2.82,12,12,0,0,1,2.11-2.06,3.21,3.21,0,0,1,1.64-.81,2,2,0,0,1,1,.26,3.61,3.61,0,0,1,1,.71,4,4,0,0,1,.75,1,2.43,2.43,0,0,1,.29,1.13c0,.26-.27.63-.81,1.1s-1.12,1-1.75,1.68a18.31,18.31,0,0,0-1.74,2.13,4.17,4.17,0,0,0-.81,2.4.82.82,0,0,0,.71.87,7.23,7.23,0,0,0,1.62.16,11,11,0,0,0,4.07-.77A14.86,14.86,0,0,0,155.81,59a10.56,10.56,0,0,0,2.36-2.43,4.28,4.28,0,0,0,.87-2.32,7.34,7.34,0,0,0-1.23-4.3,13.79,13.79,0,0,0-3.1-3.2A39,39,0,0,0,150.6,44a45,45,0,0,1-4.3-2.84A14.47,14.47,0,0,1,142.55,37a12.45,12.45,0,0,1-1.48-6.4,11.36,11.36,0,0,1,1.58-5.78,22.09,22.09,0,0,1,4.11-5.11,32.4,32.4,0,0,1,5.75-4.27,51.94,51.94,0,0,1,6.5-3.26,39.27,39.27,0,0,1,6.34-2.07,23.47,23.47,0,0,1,5.26-.71,11.88,11.88,0,0,1,4.37.74A11.52,11.52,0,0,1,178.21,12a8,8,0,0,1,2,2.49,5.84,5.84,0,0,1,.71,2.62,6.64,6.64,0,0,1-.74,2.68,23.32,23.32,0,0,1-1.94,3.3c-.8,1.14-1.66,2.27-2.59,3.39a39.74,39.74,0,0,1-2.72,3c-.88.88-1.66,1.61-2.32,2.17a3.06,3.06,0,0,1-1.39.84,2.23,2.23,0,0,1-1-.29,4.51,4.51,0,0,1-1-.75,4,4,0,0,1-.74-1,2.32,2.32,0,0,1-.29-1.13,1,1,0,0,1,.09-.49,3.81,3.81,0,0,1,.46-.51c.23-.24.59-.57,1.06-1s1.15-1.07,2-1.93a39.63,39.63,0,0,0,5.49-7.18,19.65,19.65,0,0,0,1.49-3,1,1,0,0,0-.42-.81,3.37,3.37,0,0,0-1-.45,7,7,0,0,0-1.39-.2l-1.43,0a20.91,20.91,0,0,0-4.91.71,42.39,42.39,0,0,0-5.88,2,47.06,47.06,0,0,0-6,3,32.82,32.82,0,0,0-5.27,3.85,20.43,20.43,0,0,0-3.79,4.49,9.37,9.37,0,0,0-1.45,4.92,6.46,6.46,0,0,0,2.33,4.85,38.42,38.42,0,0,0,4.94,3.78A51.85,51.85,0,0,1,157.68,45a20.62,20.62,0,0,1,4,4.39,10,10,0,0,1,1.65,5.73,8.23,8.23,0,0,1-1.23,4.43A12.7,12.7,0,0,1,159,62.94a14.61,14.61,0,0,1-4.2,2.23A13.76,13.76,0,0,1,150.38,66Z"/><path class="cls-1" d="M184,56.06a2.39,2.39,0,0,1-2.07-1.14,8.53,8.53,0,0,1-1.2-2.71,18.71,18.71,0,0,1-.55-3.36c-.08-1.19-.13-2.21-.13-3.07v-.65c-.51.78-1.14,1.65-1.87,2.62a32.71,32.71,0,0,1-2.36,2.78,15.09,15.09,0,0,1-2.65,2.23,5,5,0,0,1-2.75.9,4.64,4.64,0,0,1-1.91-.42,5.93,5.93,0,0,1-1.71-1.19,5.65,5.65,0,0,1-1.23-1.85,6,6,0,0,1-.45-2.36,12.28,12.28,0,0,1,1.23-4.94,18.25,18.25,0,0,1,3.46-5.11,20.37,20.37,0,0,1,5.26-4,14.07,14.07,0,0,1,6.66-1.61.93.93,0,0,1,.39.06l.65-1.16a1,1,0,0,1,1-.45,3,3,0,0,1,2,.93,2.81,2.81,0,0,1,1,2.11c-.09.25-.27.85-.55,1.77s-.57,2-.87,3.33-.58,2.73-.81,4.3a31.16,31.16,0,0,0-.36,4.69,24.86,24.86,0,0,0,1,6.72.75.75,0,0,0,0,.23.53.53,0,0,1,0,.23C185.23,55.65,184.82,56,184,56.06ZM169.32,49.2a18.8,18.8,0,0,0,5.43-5.36q1.49-2,2.59-3.59c.73-1.06,1.36-2,1.87-2.88a16.74,16.74,0,0,0-3.81,2.3,17.8,17.8,0,0,0-3,3,18.41,18.41,0,0,0-2.07,3.3A10.49,10.49,0,0,0,169.32,49.2Z"/><path class="cls-1" d="M203.72,69.25a5,5,0,0,1-2.72-.78,7.54,7.54,0,0,1-2.1-2,10.49,10.49,0,0,1-1.39-2.78,9.66,9.66,0,0,1-.52-3.11,9.38,9.38,0,0,1,.16-1.84c.11-.5.47-.74,1.07-.74a3.18,3.18,0,0,1,2,.9,2.85,2.85,0,0,1,1.07,2.26l-.13,1.43c0,1.59.3,2.39.91,2.39h.06a7.52,7.52,0,0,0,2.75-1.46,10.18,10.18,0,0,0,2.07-2.42,16,16,0,0,0,1.45-3.1,23.32,23.32,0,0,0,.91-3.5,34.51,34.51,0,0,0,.77-6.85c0-.86,0-1.85-.13-3a15.77,15.77,0,0,0-.55-3.17A7.23,7.23,0,0,0,208.14,39a2.66,2.66,0,0,0-2.23-1,4.26,4.26,0,0,0-2.94,1.3,12.73,12.73,0,0,0-2.52,3.45,30.54,30.54,0,0,0-2,5q-.87,2.82-1.49,5.85T196,59.68a57.22,57.22,0,0,0-.32,5.75l.06,2.39c0,.48-.19.76-.58.84a5.75,5.75,0,0,1-1.29.13c-2,0-3.39-2.52-4.2-7.56-.31-1.81-.53-3.61-.68-5.4s-.23-3.61-.23-5.46A77.72,77.72,0,0,1,189.62,39q.84-5.7,1.81-11.45t1.81-11.6A83.87,83.87,0,0,0,194.08,4L194,1c0-.65.36-1,1.1-1a2.65,2.65,0,0,1,2.13,1,4,4,0,0,1,1,2.1l.07,3A85.62,85.62,0,0,1,197.48,18c-.54,3.85-1.18,7.75-1.91,11.67-.65,3.4-1.19,6.81-1.62,10.21s-.75,6.83-1,10.28a52.12,52.12,0,0,1,1.85-6.79,25.2,25.2,0,0,1,2.45-5.2,11.28,11.28,0,0,1,3.11-3.33,6.54,6.54,0,0,1,3.78-1.16,8.24,8.24,0,0,1,3.33.8,9,9,0,0,1,3.26,2.69,15.94,15.94,0,0,1,2.49,4.94,24.71,24.71,0,0,1,1,7.6,35.69,35.69,0,0,1-.62,6.27,29.14,29.14,0,0,1-1.87,6.37,15.07,15.07,0,0,1-3.27,4.91A6.57,6.57,0,0,1,203.72,69.25Z"/><path class="cls-1" d="M226.86,51.21a10.38,10.38,0,0,1-3.36-.52,11.78,11.78,0,0,1-2.85-1.39,10.73,10.73,0,0,1-2.23-2,11.46,11.46,0,0,1-1.51-2.36l-1,.25a3,3,0,0,1-2-1,3,3,0,0,1-1-2.23.91.91,0,0,1,.32-.81,5.94,5.94,0,0,1,1.42-.55l1.62-.58a18.85,18.85,0,0,1,6.08-10.67q4.91-4.65,9-4.65a5,5,0,0,1,2.17.48,6.06,6.06,0,0,1,1.78,1.33,7,7,0,0,1,1.23,1.87,5.15,5.15,0,0,1,.45,2.07,6.28,6.28,0,0,1-1.26,3.66,17.21,17.21,0,0,1-3.46,3.49A31.22,31.22,0,0,1,227,40.83c-2,1-4.22,2-6.59,2.88q.12,3.23,4.46,3.23a9,9,0,0,0,5-1.49,24.29,24.29,0,0,0,3.56-2.87c.86-.89,1.48-1.33,1.87-1.33a2.2,2.2,0,0,1,1,.29,5.1,5.1,0,0,1,1,.71,4,4,0,0,1,.77,1,2.35,2.35,0,0,1,.32,1.17c0,.26-.32.75-1,1.49a17.08,17.08,0,0,1-2.59,2.29,18.39,18.39,0,0,1-3.72,2.1A10.65,10.65,0,0,1,226.86,51.21Zm-4.72-13.58a34.46,34.46,0,0,0,8.15-5c1.64-1.51,2.46-2.71,2.46-3.62V29a14.52,14.52,0,0,0-6.21,3.36A22.81,22.81,0,0,0,222.14,37.63Z"/><path class="cls-1" d="M222.76,61.34H221V60.27h5v1.07h-1.82V66h-1.32Z"/><path class="cls-1" d="M231.53,66V62.54l-1.67,2.81h-.59l-1.67-2.74V66h-1.23V60.27h1.09l2.12,3.53,2.1-3.53h1.08V66Z"/></svg>